<?xml version="1.0" encoding="UTF-8"?>
<svg id="Layer_2" data-name="Layer 2" xmlns="http://www.w3.org/2000/svg" viewBox="0 0 532.5 618.92">
  <defs>
    <style>
      .cls-1 {
        fill: #bc814b;
        stroke-width: 0px;
      }
    </style>
  </defs>
  <g id="BG">
    <g>
      <g>
        <path class="cls-1" d="M241.04,144.37c15.75,0,28.56,12.85,28.56,28.63,0,3.52,2.86,6.38,6.38,6.38s6.38-2.86,6.38-6.38c0-15.79,12.81-28.63,28.56-28.63,3.52,0,6.38-2.86,6.38-6.38s-2.86-6.38-6.38-6.38c-15.75,0-28.56-12.85-28.56-28.63,0-3.52-2.86-6.38-6.38-6.38s-6.38,2.86-6.38,6.38c0,15.78-12.81,28.63-28.56,28.63-3.52,0-6.38,2.86-6.38,6.38s2.86,6.38,6.38,6.38ZM275.98,125.06c3.29,5.21,7.72,9.64,12.92,12.93-5.21,3.3-9.63,7.73-12.92,12.94-3.29-5.21-7.71-9.64-12.92-12.94,5.2-3.3,9.63-7.72,12.92-12.93Z"/>
        <path class="cls-1" d="M379.77,207.42c9.99,0,18.11,8.15,18.11,18.16,0,3.52,2.86,6.38,6.38,6.38s6.38-2.86,6.38-6.38c0-10.02,8.13-18.16,18.11-18.16,3.52,0,6.38-2.86,6.38-6.38s-2.86-6.38-6.38-6.38c-9.99,0-18.11-8.15-18.11-18.17,0-3.52-2.86-6.38-6.38-6.38s-6.38,2.86-6.38,6.38c0,10.02-8.13,18.17-18.11,18.17-3.52,0-6.38,2.86-6.38,6.38s2.86,6.38,6.38,6.38ZM404.27,195.3c1.65,2.16,3.58,4.09,5.73,5.74-2.15,1.65-4.08,3.58-5.73,5.74-1.65-2.16-3.58-4.09-5.73-5.74,2.15-1.65,4.08-3.58,5.73-5.74Z"/>
        <path class="cls-1" d="M529.62,7.2c0-3.52-2.86-6.38-6.38-6.38h-46.74c-.2-.02-.39,0-.59,0h-98.7c-1.15-.34-2.39-.35-3.58,0h-104.71c-1.45-.54-3.02-.52-4.42,0h-33.2c-.89-.48-1.89-.77-2.98-.77h0c-1.08,0-2.09.29-2.98.77H45.92c-.91-.5-1.95-.82-3.07-.82s-2.15.31-3.07.82H9.32C5.79.82,2.94,3.68,2.94,7.2v255.89c-.02.19-.06.38-.06.58v256.05c0,3.52,2.86,6.38,6.38,6.38h287.26s.06.03.09.04c.85.37,1.73.55,2.6.55.93,0,1.84-.21,2.68-.59h221.3c3.52,0,6.38-2.86,6.38-6.38v-255.82c.02-.19.06-.37.06-.56V7.2ZM140.87,254.72v-52.95c8.76,12.32,16.57,25.53,16.57,31.77,0,10.19-7.06,18.75-16.57,21.18ZM128.11,254.19c-8.59-2.99-14.78-11.1-14.78-20.64,0-6.67,7.13-20.23,14.78-32.44v53.08ZM493.66,28.55c-.02.17-.07.34-.1.51-.06.34-.12.67-.21,1.01-.05.21-.13.41-.2.62-.09.3-.19.6-.3.9-.09.22-.19.44-.29.66-.13.29-.25.57-.4.86-.12.23-.26.46-.39.69-.16.28-.32.55-.49.83-.15.24-.32.47-.48.7-.19.27-.38.54-.58.81-.18.24-.38.48-.58.71-.22.26-.44.52-.67.78-.22.24-.44.48-.67.72-.24.26-.49.51-.75.76-.25.24-.5.48-.76.72-.27.25-.55.49-.83.74-.28.24-.57.49-.86.73-.29.24-.6.48-.9.72-.31.24-.63.49-.96.73-.31.23-.64.46-.96.69-.35.24-.7.49-1.06.73-.33.22-.68.44-1.03.66-.38.24-.77.49-1.16.73-.35.21-.71.42-1.07.62-.42.24-.84.49-1.28.73-.35.19-.72.38-1.08.57-.47.25-.94.5-1.43.75-.34.17-.69.33-1.03.5-.54.26-1.07.52-1.63.78-.25.11-.51.22-.76.34-2.33,1.05-4.81,2.05-7.45,2.99-.15.05-.3.11-.45.17-.74.26-1.51.52-2.27.77-.31.1-.62.21-.94.31-.72.23-1.47.46-2.21.68-.38.12-.75.23-1.14.35-.73.21-1.48.42-2.23.63-.42.11-.83.23-1.25.34-.75.2-1.51.39-2.27.58-.44.11-.88.22-1.33.33-.77.18-1.54.36-2.33.53-.46.1-.93.21-1.4.31-.79.17-1.58.33-2.39.49-.48.1-.97.19-1.45.28-.81.15-1.63.3-2.46.45-.5.09-.99.17-1.49.25-.84.14-1.68.27-2.53.4-.51.08-1.02.15-1.53.22-.86.12-1.73.24-2.61.36-.51.07-1.03.13-1.55.19-.9.11-1.79.21-2.7.31-.52.05-1.04.1-1.56.16-.93.09-1.86.18-2.8.26-.51.04-1.03.08-1.54.12-.97.07-1.94.15-2.92.21-.49.03-.99.05-1.49.08-1.02.06-2.04.11-3.07.15-.07,0-.14,0-.2,0,.17-.1.34-.22.51-.32,2.36-1.45,4.71-2.93,7.07-4.45.59-.38,1.18-.77,1.77-1.15,1.92-1.25,3.84-2.52,5.76-3.81.62-.42,1.24-.83,1.87-1.25,2.3-1.57,4.61-3.16,6.92-4.79.67-.47,1.33-.95,2-1.43,1.83-1.3,3.66-2.63,5.49-3.97.7-.51,1.39-1.02,2.09-1.54,2.26-1.68,4.53-3.39,6.79-5.13.73-.56,1.46-1.14,2.19-1.7,1.75-1.36,3.49-2.73,5.24-4.12.76-.61,1.52-1.21,2.29-1.82,2.22-1.79,4.44-3.6,6.65-5.45.8-.67,1.61-1.35,2.41-2.02,1.64-1.38,3.28-2.77,4.91-4.18.41-.35.82-.69,1.23-1.04h7.42c.76.59,1.44,1.16,2.07,1.72,3.93,3.9,5.94,7.84,5.94,11.74,0,.5-.04,1.01-.1,1.51ZM362.65,57.68s-.03,0-.04,0c22.64-8.99,47.98-24.16,73.42-44.1h22.47c-21.49,17.57-43.49,32.8-64.61,44.71-.22.13-.45.25-.67.38-1.23.69-2.45,1.36-3.67,2.02-.4.22-.8.44-1.2.65-.07,0-.13-.01-.2-.02-8.86-.67-17.48-1.91-25.49-3.64ZM234.66,46.07l.04-32.49h20.42c-6.42,11.64-10.09,22.51-10.98,32.49h-9.48ZM104.06,99.88c7.95,1.29,16.37,2.1,25.15,2.37v7.04c0,3.52,2.86,6.38,6.38,6.38s6.38-2.86,6.38-6.38v-7.04c8.78-.26,17.2-1.07,25.15-2.36v21.75h-63.07v-21.76ZM135.64,89.6c-50.13,0-85.08-18.85-86.27-36.45-.02-.32-.07-.63-.13-.93V13.58h172.71l-.04,39.57c-1.19,17.6-36.14,36.45-86.27,36.45ZM269.93,13.58h17.25c-.19.72-.37,1.43-.53,2.12,0,0,0,.01,0,.02-.22.95-.42,1.87-.61,2.78-.05.24-.09.48-.14.72-.13.68-.25,1.36-.36,2.02-.04.24-.08.48-.12.71-.13.83-.25,1.65-.35,2.45,0,.02,0,.04,0,.07-.1.84-.18,1.65-.25,2.45-.02.2-.03.4-.04.6-.04.61-.08,1.2-.11,1.79,0,.21-.02.41-.03.62-.02.7-.03,1.38-.03,2.05,0,.05,0,.11,0,.16,0,.72.03,1.43.06,2.12,0,.17.02.34.03.52.03.52.07,1.03.12,1.54.02.19.03.37.05.56.06.57.13,1.14.21,1.69.01.07.02.14.03.21.09.62.2,1.22.31,1.8.03.16.06.31.1.46.09.43.19.86.29,1.28.04.17.08.34.13.51.12.46.24.9.38,1.34.03.09.05.18.08.27.16.52.33,1.02.51,1.51.01.04.03.08.04.12h-30c1.1-9.57,5.46-20.46,12.99-32.49ZM301.29,46.16s-.03-.04-.05-.06c-.15-.21-.28-.43-.42-.64-.18-.28-.37-.56-.53-.85-.13-.23-.25-.48-.37-.72-.15-.3-.3-.59-.44-.9-.11-.26-.22-.53-.32-.79-.12-.31-.25-.63-.36-.96-.09-.28-.18-.57-.26-.86-.1-.34-.2-.67-.28-1.02-.07-.3-.14-.61-.2-.92-.07-.36-.15-.72-.21-1.09-.05-.32-.1-.64-.14-.97-.05-.38-.1-.76-.13-1.15-.03-.34-.06-.68-.08-1.02-.03-.4-.05-.81-.06-1.22-.01-.35-.02-.7-.02-1.06,0-.43,0-.86.02-1.3,0-.36.02-.72.04-1.09.02-.45.06-.92.09-1.38.03-.37.06-.74.1-1.12.05-.48.11-.98.17-1.47.05-.38.09-.75.15-1.13.08-.52.17-1.05.26-1.58.07-.38.13-.75.2-1.13.11-.56.23-1.13.35-1.69.08-.37.15-.74.24-1.11.14-.61.3-1.23.46-1.85.09-.35.17-.7.27-1.05.19-.7.4-1.41.61-2.13.03-.1.06-.21.09-.31h21.66c.04,4.2,1.29,7.67,3.77,10.33,2.88,3.09,6.92,4.64,12.09,4.64,9.3,0,22.27-5.01,38.78-14.97h37.99c-26.84,19.19-53.39,32.76-74.81,38.08-13.38-3.32-26.14-5.13-38.63-5.49ZM348.13,13.58c-8.48,2.98-12.28,2.31-12.91,1.64-.13-.14-.33-.65-.36-1.64h13.27ZM15.7,13.58h20.77v40c0,.66.11,1.31.3,1.91,2.28,18.78,23.57,34.23,54.52,41.81v30.72c0,3.52,2.86,6.38,6.38,6.38h75.83c3.52,0,6.38-2.86,6.38-6.38v-30.71c28.94-7.1,49.46-21.12,53.91-38.48h16.51l46.9.03c.12,0,.88.04,1.14.04,0,0,.02,0,.03,0,12.62.16,26.04,2.02,39.87,5.55.1.02.2.04.3.06.06.02.12.05.18.06,2.95.76,5.9,1.51,8.82,2.39,1.91.58,3.87,1.12,5.85,1.63.5.13,1,.25,1.51.38,1.58.4,3.18.77,4.8,1.13.49.11.98.22,1.48.32,2.07.44,4.17.85,6.3,1.22.03,0,.06,0,.08.01,1.99.34,4.01.65,6.05.94.92.13,1.84.24,2.77.36,1.11.14,2.22.27,3.34.4,1.17.13,2.35.26,3.53.37.73.07,1.47.12,2.2.18,6.17.52,12.46.81,18.84.81,58.28,0,102.23-20.49,102.23-47.67,0-4.96-1.16-9.37-3.6-13.46h13.93v243.39H161.03c5.7-6.17,9.18-14.39,9.18-23.41,0-17.07-26.51-49.58-31.82-55.92-1.26-1.5-3.17-2.27-5.1-2.28-1.96.06-3.78,1.03-4.94,2.61-2.84,3.88-27.78,38.39-27.78,55.59,0,9.02,3.48,17.24,9.18,23.41H15.7V13.58ZM67.28,507.68c20.37-8.14,36.66-23.48,45.13-42.56,8.47,19.07,24.75,34.41,45.11,42.55-2.8,1.11-5.54,2.37-8.2,3.76-.9.47-1.62,1.14-2.18,1.91h-76.35c-.01-2.35-1.33-4.57-3.51-5.66ZM88.97,357.11c.23.09.47.13.71.18.09.07.17.15.27.21.24.15,15.52,9.73,33.48,20.85.55.48,1.16.86,1.83,1.13,9.69,5.99,20.03,12.35,29.13,17.86,3.95,2.39,8.55,5.23,13.61,8.34,6.88,4.23,14.56,8.96,22.59,13.8.05.03.1.07.15.09,26.92,16.23,57.68,33.67,74.86,37.75,5.01,1.19,10.81,2.28,17.04,3.22,17.18,4.22,31.67,4.6,36.22,4.6h2.11c2.82,0,9.96-.15,19.33-1.39,9.3-.62,16.72-2.07,20.5-4.57,12.49-8.26,15.25-17.8,16.74-41.25-.01-.37-1.65-37.28,1.9-66.89,2.01-16.72,11.56-25.13,18.77-29.16-.58,9.87-1.18,25.22-.49,38.46,1.16,22.13,13.17,43.46,13.95,44.79,7.33,10.77,14.48,19.08,21.39,27.12,13.43,15.61,24.03,27.93,29.84,51.22,3.37,13.52,5.96,21.85,8.45,29.88h-172.08c-22.48-10.08-60.6-27.25-64.9-31.48-3.74-4.67-14.78-13.06-35.6-28.73-16.58-12.48-37.22-28-57.92-44.92-28.98-23.7-49.7-39.66-63.41-50.21-1.33-1.02-2.57-1.99-3.74-2.88,4.43-.37,9.76-.06,15.27,1.98ZM177.43,380.46c-.84-3.92-2.98-34.97-3.08-48.74,3.44,2.84,7.94,7.51,11.21,12.7,3.49,5.56,5.9,16.93,7.83,26.08,1.75,8.28,3.13,14.82,5.32,18.81,1.6,2.93,6.74,10.71,12.62,19.44,1.89,3.06,3.95,6.09,6.18,9.11,1,1.47,2,2.93,2.98,4.36-7.59-4.32-15.27-8.85-22.61-13.26-2.58-3.51-10.51-14.27-20.33-27.44-.02-.35-.04-.71-.12-1.06ZM205.98,307.01l193.2.37c-9.68,3.5-22.98,12.36-29.28,29.12h-165.02c-.19-9.37.25-19.17,1.1-29.49ZM421.37,396.26c-2.83-5.56-10.1-21.2-10.91-36.59-.19-3.69-.28-7.59-.29-11.51h24.69c-1.42,17.15-5.41,33-13.5,48.1ZM448.25,328.91c.4-.09.8-.21,1.2-.38,6.87-2.95,15.66-1.66,21.36,3.17,5.68,4.81,8.36,13.19,6.53,20.37-2.12,8.3-9.4,14.92-16.23,20.29-5.33,4.19-13.8,9.33-21.16,13.55,6.46-17.85,8.58-36.6,8.3-57.01ZM435.47,335.41h-25.1c.4-12.41,1.23-22.46,1.24-22.62.17-2.01-.62-3.97-2.12-5.31-.03-.03-.06-.05-.09-.07l25.01.05c.78,9.73,1.19,19.02,1.05,27.96ZM364.79,417.79c-1.43,21.82-4.06,26-10.53,30.39-6.05,1.47-11.75,2.41-16.72,3.03-13.24.62-32.37-.2-50.63-2.87-16.54-3.9-35.95-11.58-49.79-26.71-3.5-3.82-6.63-7.67-9.47-11.56-1.59-2.33-3.16-4.65-4.69-6.91-10.54-16.78-15.65-34.44-17.4-53.91h161.24c-.01.08-.02.16-.03.24-3.68,30.68-2.05,67.46-1.97,68.29ZM168.88,391.23c-2.83-1.74-5.5-3.37-7.89-4.82-8.96-5.42-19.13-11.67-28.69-17.58l-29.51-53.11c4.03.77,8.64,2.54,12.44,6.33,6.58,6.56,32.18,40.33,53.66,69.18ZM516.8,513.35h-32.1l-1.13-3.66c-2.45-7.9-4.99-16.06-8.29-29.3-6.54-26.23-19.17-40.91-32.55-56.46-4.38-5.09-8.86-10.31-13.3-16.04.75-1.24,1.47-2.48,2.17-3.72.06,0,.12.01.18.01,1.04,0,2.09-.25,3.07-.79,11.53-6.33,25.83-14.44,34.15-20.99,8.02-6.32,17.61-15.1,20.7-27.16,3.05-11.93-1.23-25.29-10.64-33.27-8.48-7.18-20.66-9.53-31.29-6.36-.28-4.94-.67-9.97-1.14-15.12-.3-3.28-3.05-5.79-6.34-5.8l-240.13-.46h-.01c-3.29,0-6.04,2.5-6.35,5.77-1.06,11.08-1.71,21.6-1.75,31.68-6.11-7.55-15.72-16.59-23.05-15.38-3.36.54-5.97,3.01-6.81,6.43-1.09,4.48-.3,23.63.78,39.33-16.26-21.57-33.11-43.44-38.74-49.05-13.7-13.67-32.77-10.31-33.58-10.15-2.02.37-3.73,1.7-4.6,3.55-.87,1.86-.8,4.03.2,5.82l23.75,42.74c-7.89-4.92-13.13-8.21-13.27-8.3-.6-.38-1.25-.61-1.9-.77-.44-.31-.92-.59-1.45-.79-19.11-7.03-35.94.84-36.65,1.18-1.96.93-3.31,2.81-3.58,4.97-.27,2.16.58,4.31,2.26,5.7,2.85,2.36,7.6,6.02,14.25,11.15,13.65,10.51,34.28,26.4,63.12,49.98,20.9,17.08,41.65,32.7,58.32,45.24,16.31,12.28,30.4,22.88,33.32,26.51,3.07,3.82,13.47,9.52,43.91,23.49h-74.44c2.07-1.06,3.5-3.18,3.5-5.66,0-3.52-2.86-6.38-6.38-6.38-39.82,0-72.21-29.7-72.21-66.2,0-3.52-2.86-6.38-6.38-6.38s-6.38,2.86-6.38,6.38c0,36.5-32.39,66.2-72.21,66.2-3.52,0-6.38,2.86-6.38,6.38,0,2.48,1.43,4.61,3.5,5.66h-15.3v-99.34c.99.63,2.16,1.01,3.42,1.01,10.56,0,19.14,8.61,19.14,19.18,0,3.52,2.86,6.38,6.38,6.38s6.38-2.86,6.38-6.38c0-10.58,8.59-19.18,19.14-19.18,3.52,0,6.38-2.86,6.38-6.38s-2.86-6.38-6.38-6.38c-10.55,0-19.14-8.61-19.14-19.18,0-3.52-2.86-6.38-6.38-6.38s-6.38,2.86-6.38,6.38c0,10.57-8.59,19.18-19.14,19.18-1.26,0-2.43.38-3.42,1.01v-133.21h501.16v243.29ZM38.17,408.63c2.43-1.82,4.59-3.98,6.41-6.41,1.82,2.43,3.98,4.59,6.41,6.41-2.43,1.82-4.59,3.99-6.41,6.42-1.82-2.43-3.98-4.6-6.41-6.42Z"/>
      </g>
      <g>
        <path class="cls-1" d="M0,604.61c3.04,1.78,5.76,2.67,8.16,2.67s4.44-.85,6.13-2.55c1.69-1.7,2.53-3.75,2.53-6.15v-39.86h8.66v39.86c0,4.8-1.69,8.89-5.07,12.28-3.38,3.39-7.46,5.08-12.25,5.08-2.91,0-5.63-.64-8.16-1.93v-9.4Z"/>
        <path class="cls-1" d="M50.98,607.98l-3.05,7.89h-9.28l22.96-59.69,22.93,59.69h-9.28l-3.01-7.89h-21.26ZM54.31,599.32h14.61l-7.31-18.98-7.31,18.98Z"/>
        <path class="cls-1" d="M126.87,558.45l-22.93,59.73-22.96-59.73h9.28l13.68,35.57,13.65-35.57h9.28Z"/>
        <path class="cls-1" d="M135.64,607.98l-3.05,7.89h-9.28l22.96-59.69,22.93,59.69h-9.28l-3.01-7.89h-21.26ZM138.96,599.32h14.61l-7.31-18.98-7.31,18.98Z"/>
        <path class="cls-1" d="M234.01,615.75c-2.47,0-4.66-.31-6.55-.93-1.9-.62-3.92-1.73-6.09-3.32v-10.63c1.34,1.42,2.37,2.38,3.09,2.88.72.5,1.6,1.04,2.65,1.6,1.04.57,2.2,1.04,3.46,1.43,1.26.39,2.51.58,3.75.58,2.55,0,4.64-.88,6.28-2.65,1.64-1.77,2.46-3.86,2.46-6.28,0-1.98-.7-3.6-2.09-4.83-1.39-1.24-3.67-2.65-6.84-4.25-1.91-.98-3.52-1.87-4.83-2.67s-2.58-1.79-3.79-2.98c-1.21-1.19-2.19-2.6-2.94-4.23s-1.12-3.56-1.12-5.78c.1-2.16.63-4.18,1.59-6.05.95-1.87,2.24-3.5,3.87-4.91,1.62-1.4,3.47-2.49,5.55-3.27,2.07-.77,4.26-1.16,6.55-1.16,1.73.05,3.3.29,4.72.72,1.42.43,3.03,1.19,4.83,2.3v8.93c-1.08-.72-1.82-1.17-2.22-1.34-.4-.17-.97-.45-1.7-.85-.73-.4-1.58-.74-2.55-1.02-.97-.28-1.99-.43-3.07-.43-2.42.03-4.47.79-6.15,2.3-1.68,1.51-2.51,3.25-2.51,5.24.05,1.88.75,3.38,2.11,4.5,1.35,1.12,3.54,2.38,6.55,3.77,2.06.98,3.74,1.84,5.05,2.59s2.58,1.71,3.85,2.9c1.26,1.19,2.28,2.68,3.05,4.49.77,1.8,1.18,3.94,1.24,6.42,0,2.27-.48,4.43-1.43,6.47-.95,2.05-2.28,3.86-3.98,5.43-1.7,1.57-3.65,2.8-5.86,3.69-2.2.89-4.5,1.33-6.9,1.33Z"/>
        <path class="cls-1" d="M318.82,607.74l9.55,11.17h-10.82l-5.45-6.5c-.67.36-1.37.68-2.09.97-3.53,1.52-7.32,2.28-11.37,2.28s-7.87-.75-11.4-2.26c-3.53-1.51-6.62-3.55-9.28-6.13-2.65-2.58-4.75-5.6-6.28-9.07-1.53-3.47-2.3-7.18-2.3-11.15s.77-7.67,2.3-11.19c1.53-3.52,3.63-6.57,6.28-9.14,2.65-2.58,5.75-4.61,9.28-6.11,3.53-1.49,7.33-2.24,11.4-2.24s7.84.75,11.37,2.24c3.53,1.49,6.62,3.53,9.28,6.11,2.65,2.58,4.75,5.62,6.28,9.14,1.53,3.52,2.3,7.25,2.3,11.19s-.77,7.69-2.3,11.15c-1.53,3.47-3.63,6.49-6.28,9.07l-.46.46ZM306.18,605.39l-8.27-9.86h10.48l4.56,5.34c1.67-1.73,3-3.75,3.98-6.07,1.03-2.4,1.55-4.97,1.55-7.73s-.52-5.34-1.55-7.75c-1.03-2.41-2.44-4.51-4.23-6.3-1.79-1.79-3.9-3.19-6.32-4.19-2.42-1.01-5-1.51-7.73-1.51s-5.35.5-7.77,1.51c-2.42,1-4.54,2.4-6.34,4.19-1.8,1.79-3.22,3.89-4.25,6.3-1.03,2.41-1.55,4.99-1.55,7.75s.52,5.34,1.55,7.75c1.03,2.41,2.45,4.51,4.25,6.3,1.8,1.79,3.92,3.2,6.34,4.21,2.42,1.02,5.01,1.53,7.77,1.53s5.17-.49,7.54-1.47Z"/>
        <path class="cls-1" d="M371.58,598.31v-39.86h8.66v39.86c0,4.79-1.69,8.88-5.06,12.27-3.38,3.39-7.46,5.08-12.26,5.08s-8.88-1.69-12.27-5.08c-3.39-3.39-5.08-7.48-5.08-12.27v-39.86h8.66v39.86c0,2.4.85,4.45,2.55,6.15,1.7,1.7,3.75,2.55,6.15,2.55s4.44-.85,6.13-2.55c1.69-1.7,2.53-3.75,2.53-6.15Z"/>
        <path class="cls-1" d="M406.29,607.98l-3.05,7.89h-9.28l22.96-59.69,22.93,59.69h-9.28l-3.01-7.89h-21.26ZM409.62,599.32h14.61l-7.31-18.98-7.31,18.98Z"/>
        <path class="cls-1" d="M480.24,598.74l8.12,17.01h-9.28l-6.15-13.18c-2.06.62-4.25.93-6.57.93h-.66v12.18h-8.66v-57.29h9.32c6.24,0,11.56,2.2,15.97,6.61,4.41,4.41,6.61,9.72,6.61,15.93s-2.2,11.56-6.61,15.97c-.67.67-1.37,1.29-2.09,1.86ZM465.71,594.91h.66c3.87,0,7.17-1.36,9.9-4.1,2.73-2.73,4.1-6.03,4.1-9.9s-1.37-7.17-4.1-9.9c-2.73-2.73-6.03-4.1-9.9-4.1h-.66v27.99Z"/>
        <path class="cls-1" d="M506.14,558.76h26.37v8.66h-17.67v21.03h17.67v8.66h-17.67v9.9h17.67v8.66h-26.37v-56.91Z"/>
      </g>
    </g>
  </g>
</svg>