<?xml version="1.0" encoding="UTF-8"?>
<svg id="Layer_2" data-name="Layer 2" xmlns="http://www.w3.org/2000/svg" viewBox="0 0 637.45 112.01">
  <defs>
    <style>
      .cls-1 {
        fill: #b26c4b;
        stroke-width: 0px;
      }
    </style>
  </defs>
  <g id="Signs">
    <g>
      <g>
        <g>
          <g>
            <path class="cls-1" d="m110.65,111.88h-54.8c-.75,0-1.36-.61-1.36-1.36s.61-1.36,1.36-1.36h53.44v-51.74h-53.44c-.75,0-1.36-.61-1.36-1.36s.61-1.36,1.36-1.36h54.8c.75,0,1.36.61,1.36,1.36v54.45c0,.75-.61,1.36-1.36,1.36Z"/>
            <path class="cls-1" d="m56.15,111.88H1.36c-.75,0-1.36-.61-1.36-1.36v-54.45c0-.75.61-1.36,1.36-1.36h54.8c.75,0,1.36.61,1.36,1.36s-.61,1.36-1.36,1.36H2.71v51.74h53.44c.75,0,1.36.61,1.36,1.36s-.61,1.36-1.36,1.36Z"/>
          </g>
          <g>
            <g>
              <path class="cls-1" d="m63.02,112.01c-.19,0-.37-.04-.55-.12-11.23-5.03-14.53-6.69-15.35-7.72-.62-.77-3.62-3.03-7.09-5.64-3.55-2.67-7.96-5.99-12.4-9.62-6.13-5.01-10.52-8.39-13.42-10.63-1.42-1.09-2.42-1.87-3.03-2.37-.36-.3-.54-.75-.48-1.21.06-.46.34-.86.76-1.06.15-.07,3.73-1.74,7.79-.25.7.26,1.06,1.04.81,1.74-.26.7-1.04,1.07-1.74.81-1.17-.43-2.31-.5-3.25-.42.25.19.51.4.8.61,2.92,2.24,7.32,5.64,13.48,10.68,4.4,3.6,8.79,6.9,12.32,9.55,4.43,3.33,6.77,5.12,7.57,6.11.95.93,9.66,4.84,14.35,6.94.68.31.99,1.11.68,1.79-.23.5-.72.8-1.24.8Z"/>
              <path class="cls-1" d="m101.35,111.5c-.58,0-1.12-.38-1.3-.96l-.41-1.34c-.53-1.72-1.08-3.49-1.8-6.38-1.24-4.95-3.49-7.57-6.35-10.89-1.47-1.71-2.99-3.48-4.55-5.77-.17-.28-2.72-4.82-2.97-9.52-.15-2.82-.02-6.08.1-8.18-1.53.86-3.57,2.64-3.99,6.2-.75,6.3-.41,14.15-.4,14.22-.32,4.99-.9,7.02-3.56,8.77-2.71,1.79-14.19,1.04-20.24-.4-4.75-1.13-14.38-7.06-20.76-10.98-1.08-.66-2.06-1.27-2.9-1.77-5.68-3.44-13.62-8.42-13.7-8.47-.63-.4-.83-1.24-.43-1.87.4-.63,1.24-.83,1.87-.43.08.05,8,5.02,13.66,8.45.85.51,1.83,1.12,2.91,1.78,5.85,3.6,15.63,9.62,19.96,10.65,7.04,1.67,16.71,1.7,18.12.77,1.46-.96,2.04-1.78,2.35-6.54-.02-.18-.36-8,.42-14.52.74-6.18,5.5-8.75,7.91-9.25.42-.09.85.03,1.18.31.32.28.49.7.45,1.13,0,.06-.47,5.68-.25,9.97.21,4.05,2.54,8.19,2.56,8.23,1.41,2.07,2.88,3.78,4.31,5.43,2.84,3.31,5.53,6.43,6.92,12.01.7,2.82,1.24,4.55,1.76,6.23l.42,1.35c.22.72-.19,1.47-.9,1.69-.13.04-.26.06-.39.06Z"/>
              <path class="cls-1" d="m40.55,89.36c-.42,0-.83-.19-1.09-.55-4.56-6.21-13.69-18.45-15.56-20.32-.81-.81-1.79-1.18-2.65-1.35l6.47,11.65c.36.66.13,1.48-.53,1.85-.66.36-1.48.13-1.85-.53l-7.62-13.71c-.21-.38-.23-.84-.04-1.24.19-.39.55-.68.98-.76.17-.03,4.23-.75,7.14,2.16,2.49,2.48,15.29,19.9,15.83,20.64.44.6.31,1.45-.29,1.9-.24.18-.52.26-.8.26Z"/>
              <path class="cls-1" d="m50.25,94.52c-.43,0-.85-.2-1.12-.58-.67-.97-6.61-9.53-7.49-11.14-.46-.85-.76-2.24-1.13-4-.41-1.94-.92-4.36-1.67-5.55-.69-1.1-1.65-2.1-2.38-2.7.02,2.93.47,9.53.65,10.36.16.72-.29,1.46-1.01,1.62-.72.17-1.44-.26-1.62-.97-.26-1.04-.99-11.34-.61-12.93.18-.73.73-1.25,1.45-1.37,2.02-.33,4.84,2.98,5.82,4.53,1,1.59,1.54,4.16,2.02,6.43.27,1.29.58,2.76.86,3.26.69,1.26,5.53,8.29,7.34,10.9.43.62.27,1.46-.34,1.89-.24.16-.51.24-.77.24Z"/>
            </g>
            <g>
              <path class="cls-1" d="m91.21,85.95c-.48,0-.94-.25-1.19-.7-.36-.66-.12-1.48.54-1.84,1.52-.83,5.07-2.79,6.89-4.22,1.45-1.14,3-2.55,3.45-4.32.39-1.53-.18-3.31-1.39-4.33-1.21-1.03-3.08-1.3-4.54-.67-.69.29-1.49-.02-1.78-.71-.3-.69.02-1.49.71-1.78,2.41-1.03,5.37-.59,7.37,1.1,2,1.7,2.91,4.54,2.26,7.07-.66,2.56-2.7,4.43-4.4,5.78-1.77,1.39-4.81,3.12-7.26,4.46-.21.11-.43.17-.65.17Z"/>
              <path class="cls-1" d="m67.64,98.92h-.45c-1.99,0-12.91-.34-19.38-7.42-7.43-8.12-8.27-16.62-7.21-27.7.07-.7.65-1.23,1.35-1.23h0l51.07.1c.7,0,1.28.54,1.35,1.23.83,9,.46,16.43-4.03,23.43-.4.63-1.24.82-1.87.41-.63-.4-.82-1.24-.41-1.88,3.87-6.04,4.34-12.6,3.71-20.49l-48.58-.09c-.81,9.74.14,17.29,6.62,24.38,6.05,6.61,17.11,6.54,17.58,6.53.19,0,3.47.06,7.39-.9.73-.18,1.46.27,1.64,1,.18.73-.27,1.46-1,1.64-3.71.9-6.85.98-7.78.98Z"/>
            </g>
          </g>
          <g>
            <path class="cls-1" d="m110.65,111.88h-54.8c-.75,0-1.36-.61-1.36-1.36s.61-1.36,1.36-1.36h53.44v-51.74h-53.44c-.75,0-1.36-.61-1.36-1.36s.61-1.36,1.36-1.36h54.8c.75,0,1.36.61,1.36,1.36v54.45c0,.75-.61,1.36-1.36,1.36Z"/>
            <path class="cls-1" d="m56.15,111.88H1.36c-.75,0-1.36-.61-1.36-1.36v-54.45c0-.75.61-1.36,1.36-1.36h54.8c.75,0,1.36.61,1.36,1.36s-.61,1.36-1.36,1.36H2.71v51.74h53.44c.75,0,1.36.61,1.36,1.36s-.61,1.36-1.36,1.36Z"/>
          </g>
          <path class="cls-1" d="m31.77,111.32c-.49,0-.96-.26-1.2-.73-.35-.66-.09-1.48.57-1.83.57-.3,1.15-.56,1.74-.8-4.33-1.73-7.79-4.99-9.59-9.05-1.8,4.06-5.27,7.32-9.6,9.05.62.31.91,1.05.65,1.71-.27.7-1.06,1.04-1.76.77-1.9-.74-3.93-1.12-6.01-1.12-.75,0-1.36-.61-1.36-1.36s.61-1.36,1.36-1.36c8.47,0,15.36-6.32,15.36-14.08,0-.75.61-1.36,1.36-1.36s1.36.61,1.36,1.36c0,7.76,6.89,14.08,15.36,14.08.75,0,1.36.61,1.36,1.36s-.61,1.36-1.36,1.36c-2.67,0-5.3.64-7.6,1.85-.2.1-.42.15-.63.15Z"/>
          <path class="cls-1" d="m8.87,93.69c-.75,0-1.36-.61-1.36-1.36,0-2.25-1.83-4.08-4.07-4.08-.75,0-1.36-.61-1.36-1.36s.61-1.36,1.36-1.36c2.24,0,4.07-1.83,4.07-4.08,0-.75.61-1.36,1.36-1.36s1.36.61,1.36,1.36c0,2.25,1.83,4.08,4.07,4.08.75,0,1.36.61,1.36,1.36s-.61,1.36-1.36,1.36c-2.24,0-4.07,1.83-4.07,4.08,0,.75-.61,1.36-1.36,1.36Zm-1.36-6.79c.52.39.98.85,1.36,1.36.39-.52.85-.98,1.36-1.36-.52-.39-.98-.85-1.36-1.36-.39.52-.85.98-1.36,1.36Z"/>
          <path class="cls-1" d="m78.11,74.27h-35.52c-.75,0-1.36-.61-1.36-1.36s.61-1.36,1.36-1.36h35.52c.75,0,1.36.61,1.36,1.36s-.61,1.36-1.36,1.36Z"/>
          <path class="cls-1" d="m92.89,74.04h-7.39c-.75,0-1.36-.61-1.36-1.36s.61-1.36,1.36-1.36h7.39c.75,0,1.36.61,1.36,1.36s-.61,1.36-1.36,1.36Z"/>
        </g>
        <g>
          <g>
            <g>
              <g>
                <path class="cls-1" d="m28.18,57.04c-4.08,0-7.41-3.3-7.41-7.37,0-3.66,5.3-11,5.91-11.82.25-.34.63-.54,1.05-.55.41,0,.82.17,1.08.49,1.13,1.35,6.77,8.26,6.77,11.89,0,4.06-3.32,7.37-7.4,7.37Zm-.33-16.14c-1.99,2.93-4.36,7-4.36,8.77,0,2.57,2.1,4.65,4.69,4.65s4.69-2.09,4.69-4.65c0-1.68-2.66-5.73-5.02-8.77Z"/>
                <g>
                  <path class="cls-1" d="m36.29,28.58h-16.13c-.75,0-1.36-.61-1.36-1.36v-7.49c0-.75.61-1.36,1.36-1.36s1.36.61,1.36,1.36v6.13h13.41v-6.13c0-.75.61-1.36,1.36-1.36s1.36.61,1.36,1.36v7.49c0,.75-.61,1.36-1.36,1.36Z"/>
                  <path class="cls-1" d="m28.23,21.77c-11.4,0-20.33-4.26-21.02-9.97-.04-.13-.06-.26-.06-.41V1.36c0-.75.61-1.36,1.36-1.36s1.36.61,1.36,1.36v9.75c.01.06.02.13.03.2.25,3.74,7.69,7.75,18.35,7.75s18.09-4.01,18.35-7.75V1.36c.01-.75.62-1.35,1.37-1.35h0c.75,0,1.36.61,1.36,1.36v10.03c-.41,5.95-9.46,10.37-21.07,10.37Z"/>
                  <path class="cls-1" d="m28.22,24.6c-.75,0-1.36-.61-1.36-1.36v-2.57c0-.75.61-1.36,1.36-1.36s1.36.61,1.36,1.36v2.57c0,.75-.61,1.36-1.36,1.36Z"/>
                </g>
                <path class="cls-1" d="m85.37,15.89c-4.33,0-8.51-.57-12.07-1.65-3.84-1.16-7.39-1.73-10.82-1.73h-13.8c-.75,0-1.36-.61-1.36-1.36s.61-1.36,1.36-1.36h13.8c3.71,0,7.51.6,11.61,1.85,3.31,1,7.21,1.53,11.28,1.53,11.21,0,19.03-3.91,19.03-7.42,0-1.01-.33-1.88-1.99-3.07-.61-.44-.74-1.29-.3-1.89.44-.61,1.29-.74,1.9-.3,2.15,1.56,3.11,3.18,3.11,5.27,0,5.78-9.35,10.14-21.74,10.14Z"/>
              </g>
              <g>
                <path class="cls-1" d="m85.37,15.89c-1.08,0-2.15-.04-3.18-.11-.61-.04-1.11-.48-1.24-1.07-.13-.59.15-1.2.69-1.48,5.85-3.12,11.84-7.31,17.8-12.47.57-.49,1.42-.43,1.91.14.49.57.43,1.42-.14,1.91-4.65,4.03-9.33,7.49-13.96,10.33,10.19-.41,17.14-4.07,17.14-7.39,0-.98-.59-1.96-1.74-2.94-.57-.48-.65-1.34-.16-1.91.48-.57,1.34-.64,1.91-.16,1.77,1.49,2.71,3.23,2.71,5.01,0,5.78-9.35,10.14-21.74,10.14Z"/>
                <path class="cls-1" d="m62.86,12.53s-.24,0-.27-.01h-9.97c-.73,0-1.33-.58-1.36-1.31-.12-3.08,1.13-6.62,3.71-10.51.41-.62,1.25-.79,1.88-.38.62.41.8,1.26.38,1.88-1.88,2.83-2.95,5.39-3.21,7.6h6.38c-.68-1.85-.81-4.58.55-8.56.24-.71,1.01-1.08,1.72-.84.71.24,1.09,1.01.85,1.72-1.24,3.64-1.19,6.47.14,7.97.06.05.12.1.15.13.39.39.5.98.28,1.48-.21.5-.71.83-1.25.83Z"/>
                <path class="cls-1" d="m82.27,15.78s-.06,0-.09,0c-3.22-.21-6.21-.73-8.89-1.54-.62-.19-1.25-.35-1.87-.51-.61-.15-1.08-.72-1.07-1.34,0-.63.39-1.18,1-1.32,5.41-1.26,12.44-5.07,19.28-10.46.59-.47,1.44-.36,1.91.23.46.59.36,1.44-.23,1.9-5.47,4.32-10.94,7.6-15.81,9.53,1.72.37,3.57.64,5.48.78,5.77-3.12,11.9-7.45,17.74-12.54.56-.49,1.42-.43,1.91.13.49.56.43,1.42-.13,1.91-6.2,5.41-12.46,9.81-18.59,13.08-.2.1-.42.16-.64.16Z"/>
                <path class="cls-1" d="m69.68,5.52c-.36,0-.73-.15-.99-.43-.82-.89-1.02-2.18-.57-3.86.19-.72.94-1.15,1.66-.96.72.19,1.15.94.96,1.66-.23.87-.12,1.24-.07,1.31.51.55.48,1.41-.07,1.92-.26.24-.59.36-.92.36Z"/>
                <path class="cls-1" d="m71.66,13.75c-.11,0-.22-.01-.34-.04-2.94-.75-5.79-1.15-8.48-1.18-.36,0-.7-.15-.95-.4-.07-.05-.1-.07-.16-.14-1.48-1.59-2.82-4.75-.77-10.75.24-.71,1.01-1.08,1.72-.84.71.24,1.09,1.01.85,1.72-1.18,3.44-1.19,6.16-.06,7.71,2.72.08,5.59.5,8.53,1.25.73.19,1.16.92.98,1.65-.16.61-.71,1.02-1.31,1.02Z"/>
                <path class="cls-1" d="m71.26,6.07c-1.1,0-1.96-.33-2.57-.99-.51-.55-.48-1.41.07-1.92.55-.51,1.41-.48,1.92.07.23.24,2.33.48,7.84-2.92.64-.39,1.47-.2,1.87.44.39.64.2,1.47-.44,1.87-3.72,2.29-6.62,3.45-8.68,3.45Z"/>
              </g>
            </g>
            <path class="cls-1" d="m58.08,38.15c-.75,0-1.36-.61-1.36-1.36,0-3.36-2.72-6.09-6.07-6.09-.75,0-1.36-.61-1.36-1.36s.61-1.36,1.36-1.36c3.35,0,6.07-2.73,6.07-6.09,0-.75.61-1.36,1.36-1.36s1.36.61,1.36,1.36c0,3.36,2.72,6.09,6.07,6.09.75,0,1.36.61,1.36,1.36s-.61,1.36-1.36,1.36c-3.35,0-6.07,2.73-6.07,6.09,0,.75-.61,1.36-1.36,1.36Zm-2.75-8.8c1.11.7,2.05,1.64,2.75,2.75.7-1.11,1.64-2.05,2.75-2.75-1.11-.7-2.05-1.64-2.75-2.75-.7,1.11-1.64,2.05-2.75,2.75Z"/>
            <path class="cls-1" d="m85.36,49.33c-.75,0-1.36-.61-1.36-1.36,0-2.13-1.73-3.86-3.85-3.86-.75,0-1.36-.61-1.36-1.36s.61-1.36,1.36-1.36c2.12,0,3.85-1.73,3.85-3.86,0-.75.61-1.36,1.36-1.36s1.36.61,1.36,1.36c0,2.13,1.73,3.86,3.85,3.86.75,0,1.36.61,1.36,1.36s-.61,1.36-1.36,1.36c-2.12,0-3.85,1.73-3.85,3.86,0,.75-.61,1.36-1.36,1.36Zm-1.22-6.58c.46.35.87.76,1.22,1.22.35-.46.76-.87,1.22-1.22-.46-.35-.87-.76-1.22-1.22-.35.46-.76.87-1.22,1.22Z"/>
            <g>
              <path class="cls-1" d="m110.66,57.36h-54.8c-.75,0-1.36-.61-1.36-1.36s.61-1.36,1.36-1.36h53.44V2.89h-53.44c-.75,0-1.36-.61-1.36-1.36s.61-1.36,1.36-1.36h54.8c.75,0,1.36.61,1.36,1.36v54.47c0,.75-.61,1.36-1.36,1.36Z"/>
              <path class="cls-1" d="m56.17,57.36H1.37c-.75,0-1.36-.61-1.36-1.36V1.53C.01.78.62.17,1.37.17h54.8c.75,0,1.36.61,1.36,1.36s-.61,1.36-1.36,1.36H2.73v51.76h53.44c.75,0,1.36.61,1.36,1.36s-.61,1.36-1.36,1.36Z"/>
            </g>
          </g>
          <path class="cls-1" d="m27.99,55.76c-.75,0-1.36-.61-1.36-1.36v-14.97c0-.75.61-1.36,1.36-1.36s1.36.61,1.36,1.36v14.97c0,.75-.61,1.36-1.36,1.36Z"/>
        </g>
      </g>
      <g>
        <g>
          <path class="cls-1" d="m147.05,97.79l-3.33-11.84h1.94l1.84,6.57,2.1-6.47.03-.1.13.04.13-.04.03.1,2.1,6.48,1.84-6.58h1.94l-3.33,11.84h-.69l-2.02-6.22-2.02,6.22h-.69Z"/>
          <path class="cls-1" d="m166.7,85.59h1.86v5.17h4.29v-5.17h1.86v12.2h-1.86v-5.17h-4.29v5.17h-1.86v-12.2Z"/>
          <path class="cls-1" d="m185.61,85.59h5.65v1.86h-3.79v3.31h3.79v1.86h-3.79v3.31h3.79v1.86h-5.65v-12.2Z"/>
          <path class="cls-1" d="m204.01,94.38v3.39h-1.86v-12.2h1.86c.11,0,.22,0,.33,0,1.15,0,2.14.43,2.95,1.29s1.22,1.9,1.22,3.12-.41,2.26-1.22,3.12c-.2.22-.42.4-.64.56l2.21,4.14h-1.99l-1.84-3.46c-.23.04-.46.06-.7.06-.11,0-.22,0-.33-.02Zm0-6.98v5.15c.1.02.21.02.33.02.68,0,1.26-.25,1.74-.76s.72-1.12.72-1.84-.24-1.33-.72-1.84c-.48-.51-1.06-.76-1.74-.76-.11,0-.22,0-.33.02Z"/>
          <path class="cls-1" d="m219.77,85.59h5.65v1.86h-3.79v3.31h3.79v1.86h-3.79v3.31h3.79v1.86h-5.65v-12.2Z"/>
          <path class="cls-1" d="m259.61,95.23v2.12c-.72.29-1.49.43-2.3.43-.87,0-1.69-.16-2.44-.48-.76-.32-1.42-.76-1.99-1.31s-1.02-1.2-1.35-1.94c-.33-.74-.49-1.54-.49-2.39s.16-1.64.49-2.4c.33-.75.78-1.41,1.35-1.96s1.23-.99,1.99-1.31c.76-.32,1.57-.48,2.44-.48.82,0,1.58.14,2.3.42v2.15c-.2-.13-.42-.24-.65-.33-.52-.22-1.07-.32-1.66-.32s-1.15.11-1.67.32-.97.52-1.36.9-.69.83-.91,1.35-.33,1.07-.33,1.66.11,1.15.33,1.66.53.97.91,1.35.84.69,1.36.9,1.07.33,1.67.33,1.14-.11,1.66-.33c.23-.09.44-.2.65-.33Z"/>
          <path class="cls-1" d="m282.2,91.65c0,.85-.16,1.65-.49,2.39-.33.74-.78,1.39-1.35,1.94-.57.55-1.23.99-1.99,1.31-.76.32-1.57.48-2.44.48s-1.69-.16-2.44-.48c-.76-.32-1.42-.76-1.99-1.31s-1.02-1.2-1.35-1.94c-.33-.74-.49-1.54-.49-2.39s.16-1.64.49-2.4c.33-.75.78-1.41,1.35-1.96s1.23-.99,1.99-1.31c.76-.32,1.57-.48,2.44-.48s1.68.16,2.44.48c.76.32,1.42.76,1.99,1.31.57.55,1.02,1.21,1.35,1.96.33.75.49,1.55.49,2.4Zm-10.53,0c0,.59.11,1.15.33,1.66s.53.97.91,1.35.84.69,1.36.9,1.07.33,1.67.33,1.14-.11,1.66-.33.97-.52,1.35-.9.69-.83.91-1.35.33-1.07.33-1.66-.11-1.15-.33-1.66-.52-.97-.91-1.35-.84-.68-1.35-.9-1.07-.32-1.66-.32-1.15.11-1.67.32-.97.52-1.36.9-.69.83-.91,1.35-.33,1.07-.33,1.66Z"/>
          <path class="cls-1" d="m293.1,85.59h5.65v1.86h-3.79v3.31h3.79v1.86h-3.79v5.17h-1.86v-12.2Z"/>
          <path class="cls-1" d="m309.65,85.59h5.65v1.86h-3.79v3.31h3.79v1.86h-3.79v5.17h-1.86v-12.2Z"/>
          <path class="cls-1" d="m326.2,85.59h5.65v1.86h-3.79v3.31h3.79v1.86h-3.79v3.31h3.79v1.86h-5.65v-12.2Z"/>
          <path class="cls-1" d="m342.75,85.59h5.65v1.86h-3.79v3.31h3.79v1.86h-3.79v3.31h3.79v1.86h-5.65v-12.2Z"/>
          <path class="cls-1" d="m380.38,85.55h1.55v12.25h-1.86v-5.93l-2.1,5.59-2.1-5.68v5.99h-1.86v-12.23h1.55l2.41,6.56,2.41-6.56Z"/>
          <path class="cls-1" d="m392.83,85.59h5.65v1.86h-3.79v3.31h3.79v1.86h-3.79v3.31h3.79v1.86h-5.65v-12.2Z"/>
          <path class="cls-1" d="m409.38,85.59h5.65v1.86h-3.79v3.31h3.79v1.86h-3.79v3.31h3.79v1.86h-5.65v-12.2Z"/>
          <path class="cls-1" d="m425.93,85.52h7.95v1.92h-3.05v10.34h-1.86v-10.34h-3.05v-1.92Z"/>
          <path class="cls-1" d="m447.5,97.8c-.53,0-1-.07-1.4-.2-.41-.13-.84-.37-1.31-.71v-2.28c.29.3.51.51.66.62.16.11.34.22.57.34.22.12.47.22.74.31.27.08.54.13.8.13.55,0,1-.19,1.35-.57.35-.38.53-.83.53-1.35,0-.43-.15-.77-.45-1.04-.3-.26-.79-.57-1.47-.91-.41-.21-.75-.4-1.04-.57-.28-.17-.55-.38-.81-.64s-.47-.56-.63-.91c-.16-.35-.24-.76-.24-1.24.02-.46.14-.9.34-1.3.21-.4.48-.75.83-1.05s.74-.53,1.19-.7c.44-.17.91-.25,1.4-.25.37.01.71.06,1.01.15s.65.25,1.04.49v1.91c-.23-.15-.39-.25-.48-.29-.09-.04-.21-.1-.37-.18-.16-.08-.34-.16-.55-.22-.21-.06-.43-.09-.66-.09-.52,0-.96.17-1.32.49-.36.32-.54.7-.54,1.12.01.4.16.72.45.97.29.24.76.51,1.4.81.44.21.8.4,1.08.56.28.16.55.37.82.62.27.25.49.57.65.96s.25.85.27,1.38c0,.49-.1.95-.31,1.39-.2.44-.49.83-.85,1.16-.37.34-.78.6-1.26.79-.47.19-.97.29-1.48.29Z"/>
          <path class="cls-1" d="m485.58,95.23v2.12c-.72.29-1.49.43-2.3.43-.87,0-1.69-.16-2.44-.48-.76-.32-1.42-.76-1.99-1.31s-1.02-1.2-1.35-1.94c-.33-.74-.49-1.54-.49-2.39s.16-1.64.49-2.4c.33-.75.78-1.41,1.35-1.96s1.23-.99,1.99-1.31c.76-.32,1.57-.48,2.44-.48.82,0,1.58.14,2.3.42v2.15c-.2-.13-.42-.24-.65-.33-.52-.22-1.07-.32-1.66-.32s-1.15.11-1.67.32-.97.52-1.36.9-.69.83-.91,1.35-.33,1.07-.33,1.66.11,1.15.33,1.66.53.97.91,1.35.84.69,1.36.9,1.07.33,1.67.33,1.14-.11,1.66-.33c.23-.09.44-.2.65-.33Z"/>
          <path class="cls-1" d="m508.17,91.65c0,.85-.16,1.65-.49,2.39-.33.74-.78,1.39-1.35,1.94-.57.55-1.23.99-1.99,1.31-.76.32-1.57.48-2.44.48s-1.69-.16-2.44-.48c-.76-.32-1.42-.76-1.99-1.31s-1.02-1.2-1.35-1.94c-.33-.74-.49-1.54-.49-2.39s.16-1.64.49-2.4c.33-.75.78-1.41,1.35-1.96s1.23-.99,1.99-1.31c.76-.32,1.57-.48,2.44-.48s1.68.16,2.44.48c.76.32,1.42.76,1.99,1.31.57.55,1.02,1.21,1.35,1.96.33.75.49,1.55.49,2.4Zm-10.53,0c0,.59.11,1.15.33,1.66s.53.97.91,1.35.84.69,1.36.9,1.07.33,1.67.33,1.14-.11,1.66-.33.97-.52,1.35-.9.69-.83.91-1.35.33-1.07.33-1.66-.11-1.15-.33-1.66-.52-.97-.91-1.35-.84-.68-1.35-.9-1.07-.32-1.66-.32-1.15.11-1.67.32-.97.52-1.36.9-.69.83-.91,1.35-.33,1.07-.33,1.66Z"/>
          <path class="cls-1" d="m525.44,85.55h1.55v12.25h-1.86v-5.93l-2.1,5.59-2.1-5.68v5.99h-1.86v-12.23h1.55l2.41,6.56,2.41-6.56Z"/>
          <path class="cls-1" d="m544.26,85.55h1.55v12.25h-1.86v-5.93l-2.1,5.59-2.1-5.68v5.99h-1.86v-12.23h1.55l2.41,6.56,2.41-6.56Z"/>
          <path class="cls-1" d="m562.29,94.06v-8.54h1.86v8.54c0,1.03-.36,1.9-1.08,2.63s-1.6,1.09-2.63,1.09-1.9-.36-2.63-1.09-1.09-1.6-1.09-2.63v-8.54h1.86v8.54c0,.51.18.95.55,1.32.36.37.8.55,1.32.55s.95-.18,1.31-.55c.36-.36.54-.8.54-1.32Z"/>
          <path class="cls-1" d="m581.22,97.79l-4.32-7.57v7.57h-1.86v-12.23h1.71l3.99,7.34v-7.38h1.86v12.26h-1.38Z"/>
          <path class="cls-1" d="m593.5,85.59h1.86v12.2h-1.86v-12.2Z"/>
          <path class="cls-1" d="m606.25,85.52h7.95v1.92h-3.05v10.34h-1.86v-10.34h-3.05v-1.92Z"/>
          <path class="cls-1" d="m625.11,85.53h1.96l2.3,5.44,2.3-5.44h1.96l-3.2,7.62v4.64h-2.13v-4.64l-3.2-7.62Z"/>
        </g>
        <g>
          <path class="cls-1" d="m139.91,59c2.84,1.66,5.38,2.49,7.62,2.49s4.15-.79,5.73-2.38c1.58-1.59,2.37-3.5,2.37-5.74V16.12h8.09v37.24c0,4.48-1.58,8.3-4.73,11.47-3.15,3.17-6.97,4.75-11.45,4.75-2.72,0-5.26-.6-7.62-1.81v-8.78Z"/>
          <path class="cls-1" d="m187.55,62.14l-2.85,7.37h-8.67l21.46-55.77,21.42,55.77h-8.67l-2.82-7.37h-19.87Zm3.11-8.09h13.65l-6.83-17.74-6.83,17.74Z"/>
          <path class="cls-1" d="m258.45,15.87l-21.42,55.81-21.46-55.81h8.67l12.79,33.23,12.75-33.23h8.67Z"/>
          <path class="cls-1" d="m266.64,62.14l-2.85,7.37h-8.67l21.46-55.77,21.42,55.77h-8.67l-2.82-7.37h-19.87Zm3.11-8.09h13.65l-6.83-17.74-6.83,17.74Z"/>
          <path class="cls-1" d="m358.55,69.4c-2.31,0-4.35-.29-6.12-.87-1.77-.58-3.67-1.61-5.69-3.11v-9.93c1.25,1.32,2.21,2.22,2.89,2.69.67.47,1.5.97,2.47,1.5.98.53,2.05.98,3.23,1.34,1.18.36,2.35.54,3.5.54,2.38,0,4.34-.82,5.87-2.47s2.29-3.61,2.29-5.87c0-1.85-.65-3.36-1.95-4.52-1.3-1.16-3.43-2.48-6.39-3.97-1.78-.92-3.29-1.75-4.52-2.49-1.23-.75-2.41-1.67-3.54-2.78-1.13-1.11-2.05-2.43-2.75-3.96-.7-1.53-1.05-3.33-1.05-5.4.1-2.02.59-3.91,1.48-5.65.89-1.75,2.09-3.27,3.61-4.59,1.52-1.31,3.25-2.33,5.18-3.05,1.94-.72,3.98-1.08,6.12-1.08,1.61.05,3.08.27,4.41.67,1.32.4,2.83,1.11,4.51,2.15v8.34c-1.01-.67-1.7-1.09-2.08-1.25-.37-.16-.9-.42-1.59-.79-.69-.37-1.48-.69-2.38-.96-.9-.26-1.86-.4-2.87-.4-2.26.02-4.18.74-5.74,2.15s-2.35,3.04-2.35,4.89c.05,1.76.7,3.16,1.97,4.21,1.26,1.05,3.3,2.22,6.12,3.52,1.93.92,3.5,1.72,4.71,2.42,1.22.7,2.41,1.6,3.59,2.71,1.18,1.11,2.13,2.5,2.85,4.19.72,1.69,1.11,3.68,1.16,6,0,2.12-.45,4.14-1.34,6.05-.89,1.91-2.13,3.61-3.72,5.08-1.59,1.47-3.41,2.62-5.47,3.45-2.06.83-4.21,1.25-6.45,1.25Z"/>
          <path class="cls-1" d="m437.8,61.93l8.92,10.44h-10.11l-5.09-6.07c-.63.34-1.28.64-1.95.9-3.3,1.42-6.84,2.13-10.62,2.13s-7.36-.7-10.66-2.11-6.19-3.32-8.67-5.73c-2.48-2.41-4.44-5.23-5.87-8.47s-2.15-6.71-2.15-10.42.72-7.17,2.15-10.46,3.39-6.13,5.87-8.54c2.48-2.41,5.37-4.31,8.67-5.71,3.3-1.4,6.85-2.09,10.66-2.09s7.32.7,10.62,2.09c3.3,1.4,6.19,3.3,8.67,5.71,2.48,2.41,4.44,5.26,5.87,8.54s2.15,6.77,2.15,10.46-.72,7.18-2.15,10.42-3.39,6.06-5.87,8.47l-.43.43Zm-11.81-2.2l-7.73-9.21h9.79l4.26,4.98c1.57-1.61,2.81-3.5,3.72-5.67.96-2.24,1.45-4.65,1.45-7.22s-.48-4.99-1.45-7.24c-.96-2.25-2.28-4.21-3.96-5.89-1.67-1.67-3.64-2.98-5.91-3.92-2.26-.94-4.67-1.41-7.22-1.41s-5,.47-7.26,1.41c-2.26.94-4.24,2.25-5.92,3.92-1.69,1.67-3.01,3.64-3.97,5.89-.96,2.25-1.44,4.67-1.44,7.24s.48,4.99,1.44,7.24c.96,2.25,2.29,4.21,3.97,5.89,1.69,1.67,3.66,2.99,5.92,3.94,2.26.95,4.68,1.43,7.26,1.43s4.83-.46,7.04-1.37Z"/>
          <path class="cls-1" d="m487.09,53.11V15.87h8.09v37.24c0,4.48-1.58,8.3-4.73,11.47-3.16,3.17-6.97,4.75-11.45,4.75s-8.3-1.58-11.47-4.75c-3.17-3.17-4.75-6.99-4.75-11.47V15.87h8.09v37.24c0,2.24.79,4.15,2.38,5.74,1.59,1.59,3.5,2.38,5.74,2.38s4.15-.79,5.73-2.38,2.37-3.5,2.37-5.74Z"/>
          <path class="cls-1" d="m519.52,62.14l-2.85,7.37h-8.67l21.46-55.77,21.42,55.77h-8.67l-2.82-7.37h-19.87Zm3.11-8.09h13.65l-6.83-17.74-6.83,17.74Z"/>
          <path class="cls-1" d="m588.62,53.51l7.58,15.89h-8.67l-5.74-12.32c-1.93.58-3.97.87-6.14.87h-.61v11.38h-8.09V15.8h8.71c5.83,0,10.8,2.06,14.92,6.18,4.12,4.12,6.18,9.08,6.18,14.88s-2.06,10.8-6.18,14.92c-.63.63-1.28,1.2-1.95,1.73Zm-13.58-3.58h.61c3.61,0,6.69-1.28,9.25-3.83,2.55-2.55,3.83-5.63,3.83-9.25s-1.28-6.69-3.83-9.25c-2.55-2.55-5.63-3.83-9.25-3.83h-.61v26.15Z"/>
          <path class="cls-1" d="m612.81,16.16h24.63v8.09h-16.51v19.65h16.51v8.09h-16.51v9.25h16.51v8.09h-24.63V16.16Z"/>
        </g>
      </g>
    </g>
  </g>
</svg>